<?xml version="1.0" encoding="UTF-8" standalone="no"?>
<!-- Created with Inkscape (http://www.inkscape.org/) -->

<svg
   xmlns:dc="http://purl.org/dc/elements/1.1/"
   xmlns:cc="http://creativecommons.org/ns#"
   xmlns:rdf="http://www.w3.org/1999/02/22-rdf-syntax-ns#"
   xmlns:svg="http://www.w3.org/2000/svg"
   xmlns="http://www.w3.org/2000/svg"
   xmlns:sodipodi="http://sodipodi.sourceforge.net/DTD/sodipodi-0.dtd"
   xmlns:inkscape="http://www.inkscape.org/namespaces/inkscape"
   width="100"
   height="30"
   id="svg2"
   version="1.1"
   inkscape:version="0.48.2 r9819"
   sodipodi:docname="csssprites.svg"
   inkscape:export-filename="/home/mjki2mb2/dynamo/docs/site/images/csssprites.png"
   inkscape:export-xdpi="90"
   inkscape:export-ydpi="90">
  <defs
     id="defs4" />
  <sodipodi:namedview
     id="base"
     pagecolor="#e7f7ff"
     bordercolor="#666666"
     borderopacity="1.0"
     inkscape:pageopacity="0"
     inkscape:pageshadow="2"
     inkscape:zoom="5.6"
     inkscape:cx="62.535394"
     inkscape:cy="10.915692"
     inkscape:document-units="px"
     inkscape:current-layer="layer1"
     showgrid="true"
     inkscape:window-width="1272"
     inkscape:window-height="773"
     inkscape:window-x="1268"
     inkscape:window-y="182"
     inkscape:window-maximized="0">
    <inkscape:grid
       type="xygrid"
       id="grid2985"
       empspacing="5"
       visible="true"
       enabled="true"
       snapvisiblegridlinesonly="true" />
  </sodipodi:namedview>
  <metadata
     id="metadata7">
    <rdf:RDF>
      <cc:Work
         rdf:about="">
        <dc:format>image/svg+xml</dc:format>
        <dc:type
           rdf:resource="http://purl.org/dc/dcmitype/StillImage" />
        <dc:title></dc:title>
      </cc:Work>
    </rdf:RDF>
  </metadata>
  <g
     inkscape:label="Layer 1"
     inkscape:groupmode="layer"
     id="layer1"
     transform="translate(0,-1022.3622)">
    <path
       sodipodi:type="arc"
       style="color:#000000;fill:#ffffff;fill-opacity:1;stroke:none;stroke-width:1;marker:none;visibility:visible;display:inline;overflow:visible;enable-background:accumulate"
       id="path3797"
       sodipodi:cx="5"
       sodipodi:cy="5"
       sodipodi:rx="5"
       sodipodi:ry="5"
       d="M 10,5 C 10,7.7614237 7.7614237,10 5,10 2.2385763,10 0,7.7614237 0,5 0,2.2385763 2.2385763,0 5,0 c 2.7614237,0 5,2.2385763 5,5 z"
       transform="matrix(3,0,0,3,0,1022.3622)" />
    <path
       sodipodi:type="arc"
       style="color:#000000;fill:#ccdddd;fill-opacity:1;stroke:none;stroke-width:1;marker:none;visibility:visible;display:inline;overflow:visible;enable-background:accumulate"
       id="path3797-2"
       sodipodi:cx="5"
       sodipodi:cy="5"
       sodipodi:rx="5"
       sodipodi:ry="5"
       d="M 10,5 C 10,7.7614237 7.7614237,10 5,10 2.2385763,10 0,7.7614237 0,5 0,2.2385763 2.2385763,0 5,0 c 2.7614237,0 5,2.2385763 5,5 z"
       transform="matrix(3,0,0,3,35,1022.3622)" />
    <path
       sodipodi:type="arc"
       style="color:#000000;fill:#bbcccc;fill-opacity:1;stroke:none;stroke-width:1;marker:none;visibility:visible;display:inline;overflow:visible;enable-background:accumulate"
       id="path3797-2-9"
       sodipodi:cx="5"
       sodipodi:cy="5"
       sodipodi:rx="5"
       sodipodi:ry="5"
       d="M 10,5 C 10,7.7614237 7.7614237,10 5,10 2.2385763,10 0,7.7614237 0,5 0,2.2385763 2.2385763,0 5,0 c 2.7614237,0 5,2.2385763 5,5 z"
       transform="matrix(3,0,0,3,70,1022.3622)" />
  </g>
</svg>
